<svg id="event_black_24dp_2_" data-name="event_black_24dp (2)" xmlns="http://www.w3.org/2000/svg" width="24" height="24" viewBox="0 0 24 24">
  <path id="Path_2745" data-name="Path 2745" d="M0,0H24V24H0Z" fill="none"/>
  <path id="Path_2746" data-name="Path 2746" d="M16,13H13a1,1,0,0,0-1,1v3a1,1,0,0,0,1,1h3a1,1,0,0,0,1-1V14A1,1,0,0,0,16,13ZM16,3V4H8V3A1,1,0,0,0,6,3V4H5A1.991,1.991,0,0,0,3.01,6L3,20a2,2,0,0,0,2,2H19a2.006,2.006,0,0,0,2-2V6a2.006,2.006,0,0,0-2-2H18V3a1,1,0,0,0-2,0Zm2,17H6a1,1,0,0,1-1-1V9H19V19A1,1,0,0,1,18,20Z" fill="#fff"/>
</svg>
