<svg id="link_black_24dp_1_" data-name="link_black_24dp (1)" xmlns="http://www.w3.org/2000/svg" width="24" height="24" viewBox="0 0 24 24">
  <g id="Group_893" data-name="Group 893">
    <rect id="Rectangle_2265" data-name="Rectangle 2265" width="24" height="24" fill="none"/>
  </g>
  <g id="Group_895" data-name="Group 895">
    <g id="Group_894" data-name="Group 894">
      <path id="Path_4995" data-name="Path 4995" d="M17,7H14a1,1,0,0,0,0,2h3a3,3,0,0,1,0,6H14a1,1,0,0,0,0,2h3A5,5,0,0,0,17,7ZM8,12a1,1,0,0,0,1,1h6a1,1,0,0,0,0-2H9A1,1,0,0,0,8,12Zm2,3H7A3,3,0,0,1,7,9h3a1,1,0,0,0,0-2H7A5,5,0,0,0,7,17h3a1,1,0,0,0,0-2Z" fill="#93959e"/>
    </g>
  </g>
</svg>
