<svg xmlns="http://www.w3.org/2000/svg" width="20" height="16" viewBox="0 0 20 16">
    <g fill="none" fill-rule="evenodd">
        <path d="M-2-4h24v24H-2z" opacity=".05"/>
        <path fill="#42cea9" fill-rule="nonzero" d="M17.391 8.302A5.152 5.152 0 0 0 15.652 8c-2.881 0-5.217 2.388-5.217 5.333 0 .303.026.596.07.89H1.738C.78 14.222 0 13.425 0 12.443V1.778C0 .79.774 0 1.74 0h13.912c.96 0 1.74.796 1.74 1.778v6.524zm2.174 3.254L15.217 16l-3.043-3.111 1.304-1.333 1.74 1.777 3.043-3.11 1.304 1.333zM1.74 1.778v1.778L8.696 8l6.956-4.444V1.778L8.696 6.222 1.739 1.778z"/>
    </g>
</svg>
