<svg id="Layer_1" data-name="Layer 1" xmlns="http://www.w3.org/2000/svg" viewBox="0 0 1780.65 528.05"><defs><style>.cls-1{fill:#42cea9;}</style></defs><path class="cls-1" d="M260.59,376a68.81,68.81,0,0,1-15.12,1.37c-31.06,0-75.87-12.91-115.45-44.25A223.28,223.28,0,0,0,111.33,320l-1.27-.85L75,359.27C146.51,483.79,265.54,461,265.54,461s38.37-109.76,51.18-160.7l-12.42-.66c-4.16,0-8.31-.05-12.43-.22,5.33,25.13,4.95,43.46-2.69,56.57A40.11,40.11,0,0,1,260.59,376Z"/><path class="cls-1" d="M490.67,190.22a43.18,43.18,0,0,1-22.82-3c-4.12-1.92-6.87-3.29-7.7-7.69-.82-3.85,2.2-7.42,4.13-9.9a31.11,31.11,0,0,1,5.5-4.95,43.55,43.55,0,0,0-5.78-1.1c-13.47-.82-26.94-1.92-40.41-2.47-12.36-.27-26.11,1.1-37.38-5-15.67-8.52-21.71-28.31-33.26-40.95a54.4,54.4,0,0,0-41-17.32H213.31a27.87,27.87,0,0,0-11.71,2.5,62.18,62.18,0,0,0-11.85,4.73c-22.81,11.79-43.37,36.83-52,48.57a175.34,175.34,0,0,0-16,26.53A188.44,188.44,0,0,0,113,200.66s-15.67,40.14-12.65,65.43c2.23,18.72,10.5,23.88,26,34.33,5.45,3.68,11.77,8,19,13.77,28,22,76.42,43.71,111.06,37.93,16.13-2.72,18-25.61,13.66-54-1.18-7.67-2.81-15.78-4.76-24-1.07-4.59-2.25-9.24-3.52-13.83-5.8-21.44-13-42.49-18.85-58a187.07,187.07,0,0,1-8.8-91.26l-.22-.14.22-.13a729.41,729.41,0,0,0,25.56,89.88c10.34,27.33,18.78,50.86,24.85,71,.53,1.65,1,3.28,1.46,4.9,2.36.08,4.76.13,7,.16,6.57.11,11.8.06,11.8.06l116.27,6a29.53,29.53,0,0,0,20.07-6l38.76-25a28.93,28.93,0,0,0,11-22.54V191.87C490.67,191.59,490.67,191,490.67,190.22ZM356,177.3a45.48,45.48,0,0,1-25-2.75c-4.12-1.92-6.87-3.3-7.7-7.7-.82-3.84,2.2-7.42,4.13-9.89,4.67-5.5,12.92-10.17,20.89-8.52,1.65.27,5.77,1.37,7.14,4.12a17.7,17.7,0,0,1,.28,8.52,7,7,0,0,0,2.75,6.6c1.92,1.37,5.77.27,6.87,2.75C366.14,174.28,358.17,177,356,177.3Z"/><path class="cls-1" d="M744.64,202a47.26,47.26,0,0,1,17,11.27A53,53,0,0,1,773,231.17a67.43,67.43,0,0,1,4.13,23.36,57.66,57.66,0,0,1-6.6,28.59,47.5,47.5,0,0,1-18.14,18.69,51.31,51.31,0,0,1-26.12,6.6,42.41,42.41,0,0,1-15.39-2.75,40.58,40.58,0,0,1-12.92-7.42A33,33,0,0,1,688.84,287h-.27v64h-19V254a59.5,59.5,0,0,1,7.15-30,49.08,49.08,0,0,1,19.24-19,56.4,56.4,0,0,1,27.49-6.6A52.1,52.1,0,0,1,744.64,202Zm-39.31,17a36.43,36.43,0,0,0-12.64,13.19,47.85,47.85,0,0,0,0,41.24,33.37,33.37,0,0,0,30.24,18.14,33.45,33.45,0,0,0,30.23-18.42,45.94,45.94,0,0,0,0-40.68,37.16,37.16,0,0,0-12.64-13.47,36.38,36.38,0,0,0-35.19,0Z"/><path class="cls-1" d="M850.75,308.13a53.85,53.85,0,0,1-47.83-27.21,57.55,57.55,0,0,1,0-55.8,53.84,53.84,0,0,1,19.51-19.79,56.57,56.57,0,0,1,28.32-7.43,55.54,55.54,0,0,1,28.58,7.43,51.82,51.82,0,0,1,19.52,19.79,57.55,57.55,0,0,1,0,55.8,51.82,51.82,0,0,1-19.52,19.79A52.94,52.94,0,0,1,850.75,308.13Zm.27-16.22a32,32,0,0,0,18.69-5.22,34.66,34.66,0,0,0,12.65-14,44.84,44.84,0,0,0,0-39.31A34.42,34.42,0,0,0,851,214.12a33.58,33.58,0,0,0-19,5.23,32.81,32.81,0,0,0-12.64,14,44.84,44.84,0,0,0,0,39.31,36.46,36.46,0,0,0,12.64,14A32.35,32.35,0,0,0,851,291.91Z"/><path class="cls-1" d="M940.08,183.89c-6.87-.28-12.64-5.78-12.64-12.65A12.78,12.78,0,1,1,953,171a13.05,13.05,0,0,1-3.85,9.34A13.92,13.92,0,0,1,940.08,183.89Zm-9.89,121.77v-105h19.24v105Z"/><path class="cls-1" d="M979.39,305.66V244.91a45.4,45.4,0,0,1,6.32-24.47A43.53,43.53,0,0,1,1003,204a57.08,57.08,0,0,1,50.86,0,44.73,44.73,0,0,1,23.63,41v60.75h-19V245.18A29.66,29.66,0,0,0,1043.44,218a31,31,0,0,0-29.41,0,27.45,27.45,0,0,0-11,10.72,29,29,0,0,0-4.12,16.49v60.48Z"/><path class="cls-1" d="M1095.39,216.87V200.65h73.12v16.22Zm47.83,88.79a29.19,29.19,0,0,1-22-8,30.07,30.07,0,0,1-8-21.72V174.26h19V274.6a14,14,0,0,0,3.85,10.72,13.84,13.84,0,0,0,10.72,4.12H1168v16.22Z"/><path class="cls-1" d="M1241.36,305.66a66.23,66.23,0,0,1-30.79-6.6,50.18,50.18,0,0,1-20.89-18.42,48.93,48.93,0,0,1-7.42-27.76,58.19,58.19,0,0,1,6.32-28,51.51,51.51,0,0,1,17.87-19.79,47.15,47.15,0,0,1,26.38-7.15,52.13,52.13,0,0,1,27.22,6.88,43.69,43.69,0,0,1,16.22,19,62.42,62.42,0,0,1,5.49,26.39v4.68a23.54,23.54,0,0,1-.55,4.39H1202.6a33,33,0,0,0,6.32,16.5,34.1,34.1,0,0,0,13.74,10.17,46.67,46.67,0,0,0,18.42,3.3h27.49v16.21h-27.21Zm-39-59.38h59.93a42,42,0,0,0-.83-8.24,38.51,38.51,0,0,0-2.75-8.52,30.39,30.39,0,0,0-5.49-7.7,21.82,21.82,0,0,0-8.53-5.5,34.68,34.68,0,0,0-11.82-2.2,28.39,28.39,0,0,0-12.64,2.75,31.3,31.3,0,0,0-9.35,7.42,35.89,35.89,0,0,0-6,10.45A41.23,41.23,0,0,0,1202.32,246.28Z"/><path class="cls-1" d="M1304.85,305.66V230.34a30,30,0,0,1,8-22c5.22-5.22,12.64-8,22-8h21.71V216.6h-18.14a14.42,14.42,0,0,0-10.72,3.84,14.7,14.7,0,0,0-3.85,11v73.94Z"/><path class="cls-1" d="M1380.17,307.86a13.63,13.63,0,0,1,0-27.22,13.92,13.92,0,0,1,13.75,13.47A12.38,12.38,0,0,1,1392,301a14.19,14.19,0,0,1-5,4.94A15.17,15.17,0,0,1,1380.17,307.86Z"/><path class="cls-1" d="M1432.67,347.44V331.22h51.41a15.48,15.48,0,0,0,11.82-4.4,16.27,16.27,0,0,0,4.12-12.09V285.87h-.55a50.5,50.5,0,0,1-9.35,10.72,40.42,40.42,0,0,1-12.91,7.42,47,47,0,0,1-16.22,2.75,49,49,0,0,1-26.12-6.87A48.19,48.19,0,0,1,1417,280.64a64.63,64.63,0,0,1,0-56.07,46.64,46.64,0,0,1,18.41-19.52,62.12,62.12,0,0,1,57.73-.27,47.33,47.33,0,0,1,18.69,19.51,59.75,59.75,0,0,1,6.6,29.14v62.12a31.42,31.42,0,0,1-8.52,23.09,30.36,30.36,0,0,1-23.09,8.53Zm31.89-56.9a33.66,33.66,0,0,0,30.79-18.42,44.88,44.88,0,0,0,0-38.76,35.34,35.34,0,0,0-49.21-13.74,31.89,31.89,0,0,0-11.82,13.74,40.85,40.85,0,0,0-4.12,19.8,45.28,45.28,0,0,0,4.12,19,36,36,0,0,0,11.82,13.75A33.56,33.56,0,0,0,1464.56,290.54Z"/><path class="cls-1" d="M1602,305.66a66.22,66.22,0,0,1-30.78-6.6,50.14,50.14,0,0,1-20.9-18.42,49.09,49.09,0,0,1-7.42-27.76,58.42,58.42,0,0,1,6.32-28,51.66,51.66,0,0,1,17.87-19.79,47.16,47.16,0,0,1,26.39-7.15,52.07,52.07,0,0,1,27.21,6.88,43.56,43.56,0,0,1,16.22,19,66.65,66.65,0,0,1,5.5,26.39v4.68a23.54,23.54,0,0,1-.55,4.39h-78.34a33,33,0,0,0,6.32,16.5,34.1,34.1,0,0,0,13.74,10.17,46.67,46.67,0,0,0,18.42,3.3h27.49v16.21H1602Zm-39.31-59.38h59.93a42,42,0,0,0-.83-8.24,30.56,30.56,0,0,0-2.75-8.52,30.14,30.14,0,0,0-5.49-7.7,25.55,25.55,0,0,0-8.52-5.5,34.77,34.77,0,0,0-11.82-2.2,28.4,28.4,0,0,0-12.65,2.75,31.13,31.13,0,0,0-9.34,7.42,35.69,35.69,0,0,0-6,10.45A50.77,50.77,0,0,0,1562.69,246.28Z"/></svg>