<svg id="check_box_black_24dp_1_" data-name="check_box_black_24dp (1)" xmlns="http://www.w3.org/2000/svg" width="24" height="24" viewBox="0 0 24 24">
  <path id="Path_4991" data-name="Path 4991" d="M0,0H24V24H0Z" fill="none"/>
  <path id="Path_4992" data-name="Path 4992" d="M19,3H5A2.006,2.006,0,0,0,3,5V19a2.006,2.006,0,0,0,2,2H19a2.006,2.006,0,0,0,2-2V5A2.006,2.006,0,0,0,19,3ZM10.71,16.29a1,1,0,0,1-1.41,0L5.71,12.7a1,1,0,0,1,1.41-1.41L10,14.17l6.88-6.88A1,1,0,0,1,18.29,8.7l-7.58,7.59Z" fill="#93959e"/>
</svg>
