<svg id="attachment_black_24dp_1_" data-name="attachment_black_24dp (1)" xmlns="http://www.w3.org/2000/svg" width="24" height="24" viewBox="0 0 24 24">
  <path id="Path_4989" data-name="Path 4989" d="M0,0H24V24H0Z" fill="none"/>
  <path id="Path_4990" data-name="Path 4990" d="M17.75,16H7.17a4.116,4.116,0,0,1-4.15-3.61A4,4,0,0,1,7,8H19.36a2.6,2.6,0,0,1,2.63,2.24A2.5,2.5,0,0,1,19.5,13H9a1,1,0,0,1,0-2h8.75a.75.75,0,0,0,0-1.5H9.14a2.6,2.6,0,0,0-2.63,2.24A2.5,2.5,0,0,0,9,14.5H19.33a4.116,4.116,0,0,0,4.15-3.61A3.993,3.993,0,0,0,19.5,6.5H7.23a5.659,5.659,0,0,0-5.71,4.96A5.505,5.505,0,0,0,7,17.5H17.75a.75.75,0,0,0,0-1.5Z" fill="#93959e"/>
</svg>
