
 <svg xmlns="http://www.w3.org/2000/svg" viewBox=".5 .5 96 96" class="icon-upload-lrg">
                    <path id="cloud" d="M75.538,29.223L51.464,15.35c-1.689-0.973-4.472-0.974-6.163,0L21.226,29.224
                                c-1.758,1.014-3.083,3.308-3.083,5.334v27.743c0,2.027,1.326,4.32,3.083,5.334l24.075,13.874c0.845,0.486,1.939,0.755,3.082,0.755
                                c1.143,0,2.237-0.269,3.082-0.755l24.072-13.874c1.759-1.012,3.086-3.305,3.086-5.334V34.558
                                C78.623,32.53,77.297,30.236,75.538,29.223z M75.623,62.301c0,0.938-0.769,2.267-1.583,2.734L49.967,78.909
                                c-0.77,0.443-2.398,0.443-3.168,0L22.724,65.035c-0.813-0.469-1.582-1.797-1.582-2.734V34.558c0-0.937,0.769-2.266,1.582-2.735
                                L46.798,17.95c0.385-0.222,0.978-0.354,1.585-0.354s1.199,0.132,1.584,0.354L74.04,31.823c0.813,0.469,1.583,1.798,1.583,2.735
                                V62.301z"></path>
                    <path id="arrow" fill="#32a885" d="M57.532,45.611l-8.556-7.785c-0.174-0.157-0.392-0.235-0.608-0.235
                                c-0.22,0-0.437,0.08-0.608,0.236l-8.528,7.785c-0.275,0.251-0.368,0.646-0.233,0.995c0.135,0.349,0.47,0.578,0.843,0.578h5.095
                                V58.39c0,0.499,0.405,0.903,0.904,0.903h5.191c0.498,0,0.903-0.404,0.903-0.903V47.185h4.985c0.375,0,0.709-0.229,0.845-0.579
                                C57.901,46.258,57.808,45.862,57.532,45.611z"></path>

                </svg>