<svg id="assignment_black_24dp_1_" data-name="assignment_black_24dp (1)" xmlns="http://www.w3.org/2000/svg" width="24" height="24" viewBox="0 0 24 24">
  <path id="Path_4969" data-name="Path 4969" d="M0,0H24V24H0Z" fill="none"/>
  <path id="Path_4970" data-name="Path 4970" d="M19,3H14.82A2.988,2.988,0,0,0,9.18,3H5A2.006,2.006,0,0,0,3,5V19a2.006,2.006,0,0,0,2,2H19a2.006,2.006,0,0,0,2-2V5A2.006,2.006,0,0,0,19,3ZM12,3a1,1,0,1,1-1,1A1,1,0,0,1,12,3Zm1,14H8a1,1,0,0,1,0-2h5a1,1,0,0,1,0,2Zm3-4H8a1,1,0,0,1,0-2h8a1,1,0,0,1,0,2Zm0-4H8A1,1,0,0,1,8,7h8a1,1,0,0,1,0,2Z" fill="#fff"/>
</svg>
